<svg xmlns="http://www.w3.org/2000/svg" width="474" height="762" fill="none"><path stroke="#D0D5F6" stroke-width="2" d="M172.71 3S19.58 35.43 13.273 122.074c-6.307 86.643 231.598 17.186 136.358 198-95.241 180.813-181.318 185.289-136.358 298C58.233 730.785 178.96 789.953 319.21 745.2c140.251-44.754 153.453-332.126 153.453-332.126"/><path stroke="#D0D5F6" stroke-width="2" d="M214.7 3S94.575 31.481 89.628 107.575c-4.948 76.093 181.679 15.094 106.966 173.89C121.882 440.262 54.359 444.192 89.628 543.179c35.269 98.986 129.974 150.95 239.995 111.646C439.643 615.521 450 363.141 450 363.141"/><path stroke="#D0D5F6" stroke-width="2" d="M250.935 1s-90.905 24.841-94.649 91.208c-3.744 66.367 137.487 13.165 80.948 151.664s-107.638 141.927-80.948 228.261c26.69 86.335 98.359 131.656 181.618 97.376S429 315.108 429 315.108"/></svg>