<svg xmlns="http://www.w3.org/2000/svg" width="474" height="762" fill="none"><path stroke="#D0D5F6" stroke-width="2" d="M301.29 759s153.13-32.43 159.437-119.074c6.307-86.643-231.598-17.186-136.358-198 95.241-180.813 181.318-185.289 136.358-298C415.767 31.216 295.04-27.954 154.79 16.801 14.539 61.553 1.337 348.925 1.337 348.925"/><path stroke="#D0D5F6" stroke-width="2" d="M259.3 759s120.125-28.481 125.072-104.575c4.948-76.093-181.679-15.094-106.966-173.89 74.712-158.797 142.235-162.727 106.966-261.714-35.269-98.986-129.974-150.95-239.995-111.646C34.357 146.479 24 398.859 24 398.859"/><path stroke="#D0D5F6" stroke-width="2" d="M223.065 761s90.905-24.841 94.649-91.208c3.744-66.367-137.487-13.165-80.948-151.664s107.638-141.927 80.948-228.261c-26.69-86.335-98.359-131.656-181.618-97.376S45 446.892 45 446.892"/></svg>